<?xml version="1.0" standalone="no"?>
<svg xmlns="http://www.w3.org/2000/svg" xmlns:xlink="http://www.w3.org/1999/xlink" width="796pt" height="375pt" viewBox="0.00 0.00 796.3 375.2">
<g id="graph0" class="graph" transform="translate(4,371.20001220703125) scale(1)" data-name="G">

<polygon fill="white" stroke="none" points="-4,4 -4,-371.2 792.3,-371.2 792.3,4 -4,4"/>



<!-- a -->
<g id="node1" class="node" pointer-events="visible" data-name="a">

<polygon fill="none" stroke="none" points="631.74,-367.1 452.2,-367.1 452.2,-330.5 631.74,-330.5 631.74,-367.1"/>
<text text-anchor="middle" x="541.97" y="-341.6" font-family="Helvetica,Arial,sans-serif" font-size="24.00">Feature selection</text>
</g>
<!-- b --><g id="edge1" class="edge" data-name="a-&gt;f" data-comment="b">

<path fill="none" stroke="black" d="M475.35,-330.04C433.1,-318.77 378.88,-304.31 337.96,-293.4"/>
<polygon fill="black" stroke="black" points="339.09,-290.08 328.53,-290.88 337.29,-296.84 339.09,-290.08"/>
</g>

<!-- a&#45;&gt;b -->
<!-- b -->
<!-- a&#45;&gt;i -->
<g id="edge3" class="edge" data-name="a-&gt;i">

<path fill="none" stroke="rgb(0, 0, 0)" d="M561.41,-330.05C589.04,-304.84 639.75,-258.54 671,-230.02"/>
<polygon fill="black" stroke="black" points="673.11,-232.83 678.14,-223.5 668.39,-227.66 673.11,-232.83"/>
</g><g id="edge2" class="edge" data-name="a-&gt;w" data-comment="a-&gt;i">

<path fill="none" stroke="rgb(0, 0, 0)" d="M541.97,-330.05C541.97,-305.92 541.97,-262.46 541.97,-233.77"/>
<polygon fill="black" stroke="black" points="545.47,-233.99 541.97,-223.99 538.47,-233.99 545.47,-233.99"/>
</g>
<!-- a&#45;&gt;b -->

<!-- f --><g id="node2" class="node" pointer-events="visible" data-name="f">

<polygon fill="none" stroke="#000000" points="326.74,-294.4 229.2,-294.4 229.2,-258.4 326.74,-258.4 326.74,-294.4"/>
<text text-anchor="middle" x="277.97" y="-272.2" font-family="Helvetica,Arial,sans-serif" font-size="14.00">Filter methods</text>
</g><g id="node3" class="node" pointer-events="visible" data-name="w" data-comment="f">

<polygon fill="none" stroke="#000000" points="601.22,-222.4 482.72,-222.4 482.72,-186.4 601.22,-186.4 601.22,-222.4"/>
<text text-anchor="middle" x="541.97" y="-200.2" font-family="Helvetica,Arial,sans-serif" font-size="14.00">Wrapped methods</text>
</g><g id="node4" class="node" pointer-events="visible" data-name="i" data-comment="f">

<polygon fill="none" stroke="#000000" points="761.28,-222.4 634.66,-222.4 634.66,-186.4 761.28,-186.4 761.28,-222.4"/>
<text text-anchor="middle" x="697.97" y="-200.2" font-family="Helvetica,Arial,sans-serif" font-size="14.00">Embedded methods</text>
</g>
<!-- f1 -->
<g id="node5" class="node" pointer-events="visible" data-name="f1">

<polygon fill="none" stroke="none" points="158.79,-222.4 67.15,-222.4 67.15,-186.4 158.79,-186.4 158.79,-222.4"/>
<text text-anchor="middle" x="112.97" y="-200.2" font-family="Helvetica,Arial,sans-serif" font-size="14.00">Simple filters</text>
</g>
<!-- f2 -->
<!-- f2 -->
<g id="node6" class="node" pointer-events="visible" data-name="f2">

<polygon fill="none" stroke="none" points="280.55,-222.4 205.39,-222.4 205.39,-186.4 280.55,-186.4 280.55,-222.4"/>
<text text-anchor="middle" x="242.97" y="-200.2" font-family="Helvetica,Arial,sans-serif" font-size="14.00">Univariate</text>
</g><g id="edge4" class="edge" data-name="f-&gt;f1" data-comment="f2">

<path fill="none" stroke="black" d="M236.76,-257.92C214.82,-248.61 187.64,-237.08 164.34,-227.19"/>
<polygon fill="black" stroke="black" points="165.91,-224.06 155.33,-223.37 163.17,-230.5 165.91,-224.06"/>
</g>
<!-- f3 -->
<g id="edge5" class="edge" data-name="f-&gt;f2" data-comment="f3">

<path fill="none" stroke="black" d="M269.32,-258.1C265.5,-250.47 260.93,-241.32 256.67,-232.8"/>
<polygon fill="black" stroke="black" points="259.8,-231.24 252.2,-223.86 253.54,-234.37 259.8,-231.24"/>
</g>
<!-- f3 -->
<g id="node7" class="node" pointer-events="visible" data-name="f3">

<polygon fill="none" stroke="none" points="397.67,-222.4 312.27,-222.4 312.27,-186.4 397.67,-186.4 397.67,-222.4"/>
<text text-anchor="middle" x="354.97" y="-200.2" font-family="Helvetica,Arial,sans-serif" font-size="14.00">Multivariate</text>
</g>

<!-- f&#45;&gt;f3 -->
<g id="edge6" class="edge" data-name="f-&gt;f3">

<path fill="none" stroke="black" d="M297,-258.1C306.17,-249.77 317.32,-239.62 327.4,-230.47"/>
<polygon fill="black" stroke="black" points="329.72,-233.08 334.77,-223.77 325.01,-227.9 329.72,-233.08"/>
</g>
<!-- f11 -->
<g id="node8" class="node" pointer-events="visible" data-name="f11">

<polygon fill="none" stroke="none" points="137.91,-114.9 0.03,-114.9 0.03,-35.5 137.91,-35.5 137.91,-114.9"/>
<text text-anchor="middle" x="68.97" y="-100" font-family="Helvetica,Arial,sans-serif" font-size="12">Variance Threshold</text>
<text text-anchor="middle" x="68.97" y="-71.6" font-family="Helvetica,Arial,sans-serif" font-size="12.00">Mean absolute difference</text>
<text text-anchor="middle" x="68.97" y="-43.2" font-family="Helvetica,Arial,sans-serif" font-size="12.00">Dispersion ratio</text>
</g>
<!-- f1&#45;&gt;f11 -->
<g id="edge7" class="edge" data-name="f1-&gt;f11">

<path fill="none" stroke="black" d="M106.94,-185.98C101.61,-170.57 93.57,-147.31 86.25,-126.16"/>
<polygon fill="black" stroke="black" points="89.58,-125.08 83,-116.77 82.97,-127.37 89.58,-125.08"/>
</g>
<!-- f21 -->
<!-- f21 -->
<g id="node9" class="node" pointer-events="visible" data-name="f21">

<polygon fill="none" stroke="none" points="301.6,-150.6 156.34,-150.6 156.34,0.2 301.6,0.2 301.6,-150.6"/>
<text text-anchor="middle" x="228.97" y="-135.6" font-family="Helvetica,Arial,sans-serif" font-size="12.00">Fisher score</text>
<text text-anchor="middle" x="228.97" y="-107.2" font-family="Helvetica,Arial,sans-serif" font-size="12.00">Chi-squared score</text>
<text text-anchor="middle" x="228.97" y="-78.8" font-family="Helvetica,Arial,sans-serif" font-size="12.00">SPEC and Laplacian Score</text>
<text text-anchor="middle" x="228.97" y="-50.4" font-family="Helvetica,Arial,sans-serif" font-size="12.00">Mutual information</text>
<text text-anchor="middle" x="228.97" y="-22" font-family="Helvetica,Arial,sans-serif" font-size="12.00">Relief</text>
<text text-anchor="middle" x="228.97" y="-7.6" font-family="Helvetica,Arial,sans-serif" font-size="12.00">...</text>
</g>
<g id="edge8" class="edge" data-name="f2-&gt;f21" data-comment="f21">

<path fill="none" stroke="black" d="M241.05,-185.98C240.32,-179.33 239.43,-171.22 238.46,-162.45"/>
<polygon fill="black" stroke="black" points="241.95,-162.1 237.37,-152.55 234.99,-162.87 241.95,-162.1"/>
</g>
<!-- f31 -->
<!-- f31 -->
<g id="node10" class="node" pointer-events="visible" data-name="f31">

<polygon fill="none" stroke="none" points="445.6,-150.6 320.34,-150.6 320.34,0.2 445.6,0.2 445.6,-150.6"/>
<text text-anchor="middle" x="382.97" y="-135.6" font-family="Helvetica,Arial,sans-serif" font-size="12">Inconsistency criterion</text>
<text text-anchor="middle" x="382.97" y="-107.2" font-family="Helvetica,Arial,sans-serif" font-size="12.00">mRmR</text>
<text text-anchor="middle" x="382.97" y="-78.8" font-family="Helvetica,Arial,sans-serif" font-size="12.00">MCFS</text>
<text text-anchor="middle" x="382.97" y="-50.4" font-family="Helvetica,Arial,sans-serif" font-size="12.00">CFS, FCBF</text>
<text text-anchor="middle" x="382.97" y="-22" font-family="Helvetica,Arial,sans-serif" font-size="12.00">RFS</text>
<text text-anchor="middle" x="382.97" y="-7.6" font-family="Helvetica,Arial,sans-serif" font-size="12.00">...</text>
</g>
<g id="edge9" class="edge" data-name="f3-&gt;f31" data-comment="f31">

<path fill="none" stroke="black" d="M358.8,-185.98C360.28,-179.26 362.09,-171.04 364.05,-162.15"/>
<polygon fill="black" stroke="black" points="367.44,-163.04 366.17,-152.52 360.6,-161.53 367.44,-163.04"/>
</g>
<!-- w2 -->
<g id="node12" class="node" pointer-events="visible" data-name="w11" data-comment="w2">

<polygon fill="none" stroke="none" points="619.93,-143.6 464.01,-143.6 464.01,-6.8 619.93,-6.8 619.93,-143.6"/>
<text text-anchor="middle" x="541.97" y="-128.6" font-family="Helvetica,Arial,sans-serif" font-size="12.00">Forward selection</text>
<text text-anchor="middle" x="541.97" y="-100.2" font-family="Helvetica,Arial,sans-serif" font-size="12.00">Backward selection</text>
<text text-anchor="middle" x="541.97" y="-71.8" font-family="Helvetica,Arial,sans-serif" font-size="12.00">RFE (Recursive</text>
<text text-anchor="middle" x="541.97" y="-57.4" font-family="Helvetica,Arial,sans-serif" font-size="12.00">feature elimination)</text>
<text text-anchor="middle" x="541.97" y="-29" font-family="Helvetica,Arial,sans-serif" font-size="12.00">Exhaustive Feature Selection</text>
<text text-anchor="middle" x="541.97" y="-14.6" font-family="Helvetica,Arial,sans-serif" font-size="12.00">...</text>
</g>
<!-- w&#45;&gt;w11 -->
<g id="edge11" class="edge" data-name="w-&gt;w11">

<path fill="none" stroke="black" d="M541.97,-185.98C541.97,-177.52 541.97,-166.7 541.97,-155.17"/>
<polygon fill="black" stroke="black" points="545.47,-155.45 541.97,-145.45 538.47,-155.45 545.47,-155.45"/>
</g>
<!-- i11 -->
<!-- i11 -->
<g id="node11" class="node" pointer-events="visible" data-name="i11">

<polygon fill="none" stroke="none" points="788.14,-143.6 637.8,-143.6 637.8,-6.8 788.14,-6.8 788.14,-143.6"/>
<text text-anchor="middle" x="712.97" y="-128.6" font-family="Helvetica,Arial,sans-serif" font-size="12.00">SMLR (Sparse Multinomial</text>
<text text-anchor="middle" x="712.97" y="-114.2" font-family="Helvetica,Arial,sans-serif" font-size="12.00">Logistic Regression)</text>
<text text-anchor="middle" x="712.97" y="-85.8" font-family="Helvetica,Arial,sans-serif" font-size="12.00">Lasso</text>
<text text-anchor="middle" x="712.97" y="-57.4" font-family="Helvetica,Arial,sans-serif" font-size="12.00">Ridge</text>
<text text-anchor="middle" x="712.97" y="-29" font-family="Helvetica,Arial,sans-serif" font-size="12.00">Elastic Net</text>
<text text-anchor="middle" x="712.97" y="-14.6" font-family="Helvetica,Arial,sans-serif" font-size="12.00">...</text>
</g>
<g id="edge10" class="edge" data-name="i-&gt;i11" data-comment="i11">

<path fill="none" stroke="black" d="M700.02,-185.98C701.02,-177.52 702.3,-166.7 703.66,-155.17"/>
<polygon fill="black" stroke="black" points="707.11,-155.78 704.8,-145.44 700.16,-154.96 707.11,-155.78"/>
</g>
</g>
</svg>